<?xml version="1.0" encoding="UTF-8" standalone="no"?>
<svg
   xmlns:dc="http://purl.org/dc/elements/1.1/"
   xmlns:cc="http://creativecommons.org/ns#"
   xmlns:rdf="http://www.w3.org/1999/02/22-rdf-syntax-ns#"
   xmlns:svg="http://www.w3.org/2000/svg"
   xmlns="http://www.w3.org/2000/svg"
   xmlns:sodipodi="http://sodipodi.sourceforge.net/DTD/sodipodi-0.dtd"
   xmlns:inkscape="http://www.inkscape.org/namespaces/inkscape"
   height="432"
   viewBox="0 0 432 432"
   width="432"
   version="1.1"
   id="svg4"
   sodipodi:docname="touch_camera_icon_adaptive.svg"
   inkscape:version="1.0.2 (e86c870879, 2021-01-15)">
  <metadata
     id="metadata10">
    <rdf:RDF>
      <cc:Work
         rdf:about="">
        <dc:format>image/svg+xml</dc:format>
        <dc:type
           rdf:resource="http://purl.org/dc/dcmitype/StillImage" />
      </cc:Work>
    </rdf:RDF>
  </metadata>
  <defs
     id="defs8" />
  <sodipodi:namedview
     pagecolor="#ffffff"
     bordercolor="#666666"
     borderopacity="1"
     objecttolerance="10"
     gridtolerance="10"
     guidetolerance="10"
     inkscape:pageopacity="0"
     inkscape:pageshadow="2"
     inkscape:window-width="1920"
     inkscape:window-height="1011"
     id="namedview6"
     showgrid="false"
     inkscape:snap-global="true"
     inkscape:zoom="1.4142136"
     inkscape:cx="35.33387"
     inkscape:cy="248.36209"
     inkscape:window-x="0"
     inkscape:window-y="32"
     inkscape:window-maximized="1"
     inkscape:current-layer="svg4"
     inkscape:document-rotation="0" />
  <g
     id="g39"
     inkscape:label="background"
     inkscape:export-xdpi="96"
     inkscape:export-ydpi="96">
    <rect
       style="fill:#4d4d4d;fill-opacity:1;stroke-width:26.329"
       id="rect878"
       width="432"
       height="432"
       x="0"
       y="0"
       inkscape:export-filename="/home/wbcosta/Projetos/Godot/godot-touch-camera-2d/touch_camera_icon_adaptive_bg.svg.png"
       inkscape:export-xdpi="96"
       inkscape:export-ydpi="96"
       inkscape:label="bg" />
    <path
       d="m 159.26287,273.80021 h 91.88686 c 0,0 14.98201,-10e-6 14.98203,-14.88251 l 3e-5,-14.88211 44.94607,29.765 v -89.29501 l -44.94607,29.765 v -26.04436 c 23.4555,-21.07915 18.23707,-58.99128 -10.05334,-73.04254 -28.2904,-14.05123 -61.95399,4.54904 -64.85678,35.83628 -25.08772,-19.28299 -53.87602,-9.94387 -66.57108,7.41285 -16.26031,22.23116 -10.24925,57.96865 19.63023,67.33561 v 33.14928 c 0,15.49281 14.98205,14.88251 14.98205,14.88251 z"
       fill="#a5b7f3"
       id="path2"
       style="stroke-width:14.9322"
       sodipodi:nodetypes="ccscccccscscsc"
       inkscape:export-filename="/home/wbcosta/Projetos/Godot/godot-touch-camera-2d/touch_camera_icon_adaptive_bg.svg.png"
       inkscape:export-xdpi="96"
       inkscape:export-ydpi="96"
       inkscape:label="camera" />
  </g>
  <g
     id="g35"
     inkscape:label="foreground"
     inkscape:export-xdpi="96"
     inkscape:export-ydpi="96">
    <g
       id="g1105"
       inkscape:export-filename="/home/wbcosta/Projetos/Godot/godot-touch-camera-2d/touch_camera_icon_adaptive_fg.svg.png"
       inkscape:export-xdpi="96"
       inkscape:export-ydpi="96"
       transform="matrix(0.79695834,0,0,0.79695834,41.307464,43.522594)"
       inkscape:label="hand">
      <path
         d="m 138.14117,330.93242 h 93.72491 c 0,0 18.74499,0 18.74499,-18.74498 v -74.97993 h -79.66618 v -56.23495 c 0,0 0,-18.74498 -16.40186,-18.74498 -16.40186,0 -16.40186,18.74498 -16.40186,18.74498 v 93.72491 l -33.32858,-18.74498 c 0,0 -11.715617,-6.56074 -18.744986,0 -9.372491,9.37249 0,18.74498 0,18.74498 z"
         fill="#a5b7f3"
         id="path2-3-1"
         sodipodi:nodetypes="ccscccscccccc"
         style="stroke:#4d4d4d;stroke-width:27.645;stroke-miterlimit:4;stroke-dasharray:none;stroke-opacity:1"
         inkscape:label="hand_shadow" />
      <path
         d="m 138.14117,330.93242 h 93.72491 c 0,0 18.74499,0 18.74499,-18.74498 v -74.97993 h -79.66618 v -56.23495 c 0,0 0,-18.74498 -16.40186,-18.74498 -16.40186,0 -16.40186,18.74498 -16.40186,18.74498 v 93.72491 l -33.32858,-18.74498 c 0,0 -11.715619,-6.56074 -18.744987,0 -9.37249,9.37249 0,18.74498 0,18.74498 z"
         fill="#a5b7f3"
         id="path2-3"
         sodipodi:nodetypes="ccscccscccccc"
         style="stroke-width:18.745"
         inkscape:label="hand" />
    </g>
    <rect
       style="display:inline;fill:none;fill-opacity:1;stroke:none;stroke-width:0;stroke-miterlimit:4;stroke-dasharray:none;stroke-opacity:1"
       id="rect1099"
       width="432"
       height="432"
       x="0"
       y="0"
       inkscape:export-filename="/home/wbcosta/Projetos/Godot/godot-touch-camera-2d/touch_camera_icon_adaptive_fg.svg.png"
       inkscape:export-xdpi="96"
       inkscape:export-ydpi="96"
       inkscape:label="icon-size" />
  </g>
</svg>
